<!DOCTYPE svg PUBLIC "-//W3C//DTD SVG 1.1//EN" "http://www.w3.org/Graphics/SVG/1.1/DTD/svg11.dtd">
<!-- Uploaded to: SVG Repo, www.svgrepo.com, Transformed by: SVG Repo Mixer Tools -->
<svg fill="#000000" width="197px" height="197px" viewBox="-3.2 -3.2 38.40 38.40" version="1.1" xmlns="http://www.w3.org/2000/svg" stroke="#000000" transform="matrix(1, 0, 0, 1, 0, 0)rotate(0)">
<g id="SVGRepo_bgCarrier" stroke-width="0" transform="translate(0,0), scale(1)">
<path transform="translate(-3.2, -3.2), scale(1.2)" d="M16,30.154283763042518C18.22586196343502,30.205918717121854,19.73806584738159,27.913223466315806,21.711113951662153,26.881618490104245C23.68763537133328,25.848197496618152,26.452155943434555,25.923678614645837,27.66787646964135,24.053753623006862C28.887922609376655,22.17717531535752,27.76704628860239,19.675650178341858,27.85025299408212,17.438881220226982C27.926317542755545,15.394108262268873,28.406290238631186,13.425007068108034,28.138724204964824,11.396389143808413C27.82311287334067,9.00350393460736,28.011331341348612,6.079511149950841,26.14942884046894,4.5436631059436365C24.273671380749533,2.9963863692826815,21.413004447486387,4.099489255806078,18.993955927204404,3.8530433103602064C16.9117610691296,3.6409150805630794,14.831965885482251,2.539089278400419,12.842113485356286,3.1879507725445464C10.869800532454775,3.831092911860245,9.817674232460519,5.895739802376082,8.32178074642868,7.333082097723354C6.885327079399989,8.713311124860837,4.937937152587858,9.67515110012906,4.175338235979918,11.51549731681261C3.4080676180989764,13.367117543432451,4.277747116717821,15.441787602209523,4.1333345024273775,17.44087405895043C3.951968004061118,19.95150868994822,1.7904707956272237,22.749546941831515,3.2138212041058534,24.82566198483341C4.63534599527015,26.899114161722736,8.105779854046439,25.652770729696332,10.426280142384549,26.619835915485034C12.486898332466483,27.47859560745574,13.76819913097533,30.102511039810178,16,30.154283763042518" fill="#c0c3c4" strokewidth="0"/>
</g>
<g id="SVGRepo_tracerCarrier" stroke-linecap="round" stroke-linejoin="round" stroke="#CCCCCC" stroke-width="2.496"> <title>auction</title> <path d="M11.623 7.603l6.062 3.5c0.479 0.276 1.090 0.112 1.365-0.366 0.277-0.478 0.113-1.090-0.365-1.365l-6.062-3.5c-0.479-0.276-1.090-0.112-1.366 0.365s-0.112 1.089 0.366 1.366zM17.186 11.969l-6.062-3.5-3.5 6.062 6.062 3.5 3.5-6.062zM6.123 17.129l6.062 3.5c0.478 0.276 1.090 0.112 1.365-0.366s0.112-1.090-0.365-1.365l-6.062-3.5c-0.479-0.276-1.090-0.112-1.366 0.365-0.277 0.478-0.112 1.090 0.366 1.366zM27.012 19.951l-11.076-5.817-1 1.732 10.576 6.683c0.717 0.414 1.635 0.169 2.049-0.549s0.168-1.635-0.549-2.049zM16.033 25c0-0.553-0.448-1-1-1h-9c-0.553 0-1 0.447-1 1 0 0.552 0 1 0 1l-1.033-0.021 0.033 1.021h13l0.047-0.958-0.984-0.042c0 0-0.063-0.448-0.063-1z"/> </g>
<g id="SVGRepo_iconCarrier"> <title>auction</title> <path d="M11.623 7.603l6.062 3.5c0.479 0.276 1.090 0.112 1.365-0.366 0.277-0.478 0.113-1.090-0.365-1.365l-6.062-3.5c-0.479-0.276-1.090-0.112-1.366 0.365s-0.112 1.089 0.366 1.366zM17.186 11.969l-6.062-3.5-3.5 6.062 6.062 3.5 3.5-6.062zM6.123 17.129l6.062 3.5c0.478 0.276 1.090 0.112 1.365-0.366s0.112-1.090-0.365-1.365l-6.062-3.5c-0.479-0.276-1.090-0.112-1.366 0.365-0.277 0.478-0.112 1.090 0.366 1.366zM27.012 19.951l-11.076-5.817-1 1.732 10.576 6.683c0.717 0.414 1.635 0.169 2.049-0.549s0.168-1.635-0.549-2.049zM16.033 25c0-0.553-0.448-1-1-1h-9c-0.553 0-1 0.447-1 1 0 0.552 0 1 0 1l-1.033-0.021 0.033 1.021h13l0.047-0.958-0.984-0.042c0 0-0.063-0.448-0.063-1z"/> </g>
</svg>